<svg width="62" height="30" viewBox="0 0 62 30" fill="none" xmlns="http://www.w3.org/2000/svg">
<path d="M0 3C0 1.34315 1.34315 0 3 0H59C60.6569 0 62 1.34315 62 3V27C62 28.6569 60.6569 30 59 30H3C1.34315 30 0 28.6569 0 27V3Z" fill="#1D2F38" fill-opacity="0.8"/>
<path d="M14.488 19.06C13.92 19.06 13.392 18.94 12.904 18.7C12.416 18.452 11.992 18.12 11.632 17.704C11.272 17.288 10.992 16.824 10.792 16.312C10.6 15.8 10.504 15.272 10.504 14.728C10.504 14.152 10.6 13.608 10.792 13.096C10.992 12.576 11.268 12.116 11.62 11.716C11.972 11.316 12.388 11 12.868 10.768C13.348 10.536 13.872 10.42 14.44 10.42C15.28 10.42 15.964 10.592 16.492 10.936C17.02 11.28 17.42 11.728 17.692 12.28L17.044 12.712C16.772 12.184 16.408 11.796 15.952 11.548C15.496 11.3 14.988 11.176 14.428 11.176C13.956 11.176 13.528 11.276 13.144 11.476C12.768 11.676 12.444 11.944 12.172 12.28C11.9 12.616 11.692 12.996 11.548 13.42C11.412 13.844 11.344 14.284 11.344 14.74C11.344 15.22 11.424 15.676 11.584 16.108C11.744 16.532 11.972 16.912 12.268 17.248C12.564 17.576 12.904 17.836 13.288 18.028C13.68 18.212 14.1 18.304 14.548 18.304C15.068 18.304 15.56 18.176 16.024 17.92C16.488 17.656 16.932 17.252 17.356 16.708V17.596C16.548 18.572 15.592 19.06 14.488 19.06ZM17.224 15.46H15.328V14.812H17.932V19H17.224V15.46ZM18.9858 17.2C18.9858 16.808 19.0978 16.472 19.3218 16.192C19.5458 15.904 19.8538 15.684 20.2458 15.532C20.6458 15.372 21.1058 15.292 21.6258 15.292C21.9298 15.292 22.2458 15.316 22.5738 15.364C22.9018 15.412 23.1938 15.484 23.4498 15.58V15.052C23.4498 14.524 23.2938 14.104 22.9818 13.792C22.6698 13.48 22.2378 13.324 21.6858 13.324C21.3498 13.324 21.0178 13.388 20.6898 13.516C20.3698 13.636 20.0338 13.816 19.6818 14.056L19.3698 13.48C19.7778 13.2 20.1778 12.992 20.5698 12.856C20.9618 12.712 21.3618 12.64 21.7698 12.64C22.5378 12.64 23.1458 12.86 23.5938 13.3C24.0418 13.74 24.2658 14.348 24.2658 15.124V18.016C24.2658 18.128 24.2898 18.212 24.3378 18.268C24.3858 18.316 24.4618 18.344 24.5658 18.352V19C24.4778 19.008 24.4018 19.016 24.3378 19.024C24.2738 19.032 24.2258 19.032 24.1938 19.024C23.9938 19.016 23.8418 18.952 23.7378 18.832C23.6338 18.712 23.5778 18.584 23.5698 18.448L23.5578 17.992C23.2778 18.352 22.9138 18.632 22.4658 18.832C22.0178 19.024 21.5618 19.12 21.0978 19.12C20.6978 19.12 20.3338 19.036 20.0058 18.868C19.6858 18.692 19.4338 18.46 19.2498 18.172C19.0738 17.876 18.9858 17.552 18.9858 17.2ZM23.1738 17.68C23.2618 17.568 23.3298 17.46 23.3778 17.356C23.4258 17.252 23.4498 17.16 23.4498 17.08V16.168C23.1778 16.064 22.8938 15.984 22.5978 15.928C22.3098 15.872 22.0178 15.844 21.7218 15.844C21.1378 15.844 20.6658 15.96 20.3058 16.192C19.9458 16.424 19.7658 16.74 19.7658 17.14C19.7658 17.372 19.8258 17.592 19.9458 17.8C20.0658 18 20.2418 18.168 20.4738 18.304C20.7058 18.432 20.9778 18.496 21.2898 18.496C21.6818 18.496 22.0458 18.42 22.3818 18.268C22.7258 18.116 22.9898 17.92 23.1738 17.68ZM29.1489 13.468C28.6049 13.484 28.1249 13.636 27.7089 13.924C27.3009 14.212 27.0129 14.608 26.8449 15.112V19H26.0289V12.748H26.7969V14.248C27.0129 13.808 27.2969 13.452 27.6489 13.18C28.0089 12.908 28.3889 12.756 28.7889 12.724C28.8689 12.716 28.9369 12.712 28.9929 12.712C29.0569 12.712 29.1089 12.716 29.1489 12.724V13.468ZM29.6402 15.892C29.6402 15.3 29.7602 14.76 30.0002 14.272C30.2482 13.776 30.5882 13.38 31.0202 13.084C31.4522 12.788 31.9442 12.64 32.4962 12.64C33.0162 12.64 33.4802 12.78 33.8882 13.06C34.3042 13.332 34.6282 13.664 34.8602 14.056V10.24H35.6762V18.016C35.6762 18.128 35.7002 18.212 35.7482 18.268C35.7962 18.316 35.8682 18.344 35.9642 18.352V19C35.8042 19.024 35.6802 19.032 35.5922 19.024C35.4242 19.016 35.2762 18.948 35.1482 18.82C35.0202 18.692 34.9562 18.552 34.9562 18.4V17.788C34.7082 18.196 34.3722 18.52 33.9482 18.76C33.5242 19 33.0842 19.12 32.6282 19.12C32.1962 19.12 31.7962 19.032 31.4282 18.856C31.0682 18.68 30.7522 18.44 30.4802 18.136C30.2162 17.832 30.0082 17.488 29.8562 17.104C29.7122 16.712 29.6402 16.308 29.6402 15.892ZM34.8602 16.852V14.92C34.7562 14.632 34.5882 14.372 34.3562 14.14C34.1242 13.9 33.8602 13.712 33.5642 13.576C33.2762 13.432 32.9882 13.36 32.7002 13.36C32.3642 13.36 32.0602 13.432 31.7882 13.576C31.5162 13.712 31.2802 13.9 31.0802 14.14C30.8882 14.38 30.7402 14.652 30.6362 14.956C30.5322 15.26 30.4802 15.572 30.4802 15.892C30.4802 16.228 30.5362 16.548 30.6482 16.852C30.7682 17.156 30.9362 17.428 31.1522 17.668C31.3682 17.9 31.6162 18.08 31.8962 18.208C32.1762 18.336 32.4802 18.4 32.8082 18.4C33.0162 18.4 33.2322 18.36 33.4562 18.28C33.6802 18.2 33.8922 18.092 34.0922 17.956C34.3002 17.812 34.4722 17.644 34.6082 17.452C34.7442 17.26 34.8282 17.06 34.8602 16.852ZM40.225 19.12C39.777 19.12 39.361 19.036 38.977 18.868C38.593 18.692 38.261 18.456 37.981 18.16C37.701 17.856 37.481 17.508 37.321 17.116C37.169 16.724 37.093 16.304 37.093 15.856C37.093 15.272 37.225 14.736 37.489 14.248C37.761 13.76 38.133 13.372 38.605 13.084C39.077 12.788 39.613 12.64 40.213 12.64C40.829 12.64 41.365 12.788 41.821 13.084C42.285 13.38 42.649 13.772 42.913 14.26C43.177 14.74 43.309 15.268 43.309 15.844C43.309 15.908 43.309 15.972 43.309 16.036C43.309 16.092 43.305 16.136 43.297 16.168H37.945C37.985 16.616 38.109 17.016 38.317 17.368C38.533 17.712 38.809 17.988 39.145 18.196C39.489 18.396 39.861 18.496 40.261 18.496C40.669 18.496 41.053 18.392 41.413 18.184C41.781 17.976 42.037 17.704 42.181 17.368L42.889 17.56C42.761 17.856 42.565 18.124 42.301 18.364C42.037 18.604 41.725 18.792 41.365 18.928C41.013 19.056 40.633 19.12 40.225 19.12ZM37.921 15.58H42.541C42.509 15.124 42.385 14.724 42.169 14.38C41.961 14.036 41.685 13.768 41.341 13.576C41.005 13.376 40.633 13.276 40.225 13.276C39.817 13.276 39.445 13.376 39.109 13.576C38.773 13.768 38.497 14.04 38.281 14.392C38.073 14.736 37.953 15.132 37.921 15.58ZM49.824 19H49.008V15.508C49.008 14.772 48.9 14.236 48.684 13.9C48.468 13.556 48.128 13.384 47.664 13.384C47.344 13.384 47.028 13.464 46.716 13.624C46.404 13.776 46.128 13.988 45.888 14.26C45.656 14.524 45.488 14.828 45.384 15.172V19H44.568V12.748H45.312V14.164C45.48 13.86 45.7 13.596 45.972 13.372C46.244 13.14 46.552 12.96 46.896 12.832C47.24 12.704 47.596 12.64 47.964 12.64C48.308 12.64 48.6 12.704 48.84 12.832C49.08 12.96 49.272 13.144 49.416 13.384C49.56 13.616 49.664 13.9 49.728 14.236C49.792 14.564 49.824 14.932 49.824 15.34V19Z" fill="white"/>
</svg>
