<svg width="65" height="30" viewBox="0 0 65 30" fill="none" xmlns="http://www.w3.org/2000/svg">
<path d="M0 3C0 1.34315 1.34315 0 3 0H62C63.6569 0 65 1.34315 65 3V27C65 28.6569 63.6569 30 62 30H3C1.34315 30 0 28.6569 0 27V3Z" fill="#1D2F38" fill-opacity="0.8"/>
<path d="M17.788 10.48V19H16.96V15.016H11.908V19H11.068V10.48H11.908V14.272H16.96V10.48H17.788ZM22.3656 19.12C21.9176 19.12 21.5016 19.036 21.1176 18.868C20.7336 18.692 20.4016 18.456 20.1216 18.16C19.8416 17.856 19.6216 17.508 19.4616 17.116C19.3096 16.724 19.2336 16.304 19.2336 15.856C19.2336 15.272 19.3656 14.736 19.6296 14.248C19.9016 13.76 20.2736 13.372 20.7456 13.084C21.2176 12.788 21.7536 12.64 22.3536 12.64C22.9696 12.64 23.5056 12.788 23.9616 13.084C24.4256 13.38 24.7896 13.772 25.0536 14.26C25.3176 14.74 25.4496 15.268 25.4496 15.844C25.4496 15.908 25.4496 15.972 25.4496 16.036C25.4496 16.092 25.4456 16.136 25.4376 16.168H20.0856C20.1256 16.616 20.2496 17.016 20.4576 17.368C20.6736 17.712 20.9496 17.988 21.2856 18.196C21.6296 18.396 22.0016 18.496 22.4016 18.496C22.8096 18.496 23.1936 18.392 23.5536 18.184C23.9216 17.976 24.1776 17.704 24.3216 17.368L25.0296 17.56C24.9016 17.856 24.7056 18.124 24.4416 18.364C24.1776 18.604 23.8656 18.792 23.5056 18.928C23.1536 19.056 22.7736 19.12 22.3656 19.12ZM20.0616 15.58H24.6816C24.6496 15.124 24.5256 14.724 24.3096 14.38C24.1016 14.036 23.8256 13.768 23.4816 13.576C23.1456 13.376 22.7736 13.276 22.3656 13.276C21.9576 13.276 21.5856 13.376 21.2496 13.576C20.9136 13.768 20.6376 14.04 20.4216 14.392C20.2136 14.736 20.0936 15.132 20.0616 15.58ZM26.2886 15.892C26.2886 15.3 26.4086 14.76 26.6486 14.272C26.8966 13.776 27.2366 13.38 27.6686 13.084C28.1006 12.788 28.5926 12.64 29.1446 12.64C29.6646 12.64 30.1286 12.78 30.5366 13.06C30.9526 13.332 31.2766 13.664 31.5086 14.056V10.24H32.3246V18.016C32.3246 18.128 32.3486 18.212 32.3966 18.268C32.4446 18.316 32.5166 18.344 32.6126 18.352V19C32.4526 19.024 32.3286 19.032 32.2406 19.024C32.0726 19.016 31.9246 18.948 31.7966 18.82C31.6686 18.692 31.6046 18.552 31.6046 18.4V17.788C31.3566 18.196 31.0206 18.52 30.5966 18.76C30.1726 19 29.7326 19.12 29.2766 19.12C28.8446 19.12 28.4446 19.032 28.0766 18.856C27.7166 18.68 27.4006 18.44 27.1286 18.136C26.8646 17.832 26.6566 17.488 26.5046 17.104C26.3606 16.712 26.2886 16.308 26.2886 15.892ZM31.5086 16.852V14.92C31.4046 14.632 31.2366 14.372 31.0046 14.14C30.7726 13.9 30.5086 13.712 30.2126 13.576C29.9246 13.432 29.6366 13.36 29.3486 13.36C29.0126 13.36 28.7086 13.432 28.4366 13.576C28.1646 13.712 27.9286 13.9 27.7286 14.14C27.5366 14.38 27.3886 14.652 27.2846 14.956C27.1806 15.26 27.1286 15.572 27.1286 15.892C27.1286 16.228 27.1846 16.548 27.2966 16.852C27.4166 17.156 27.5846 17.428 27.8006 17.668C28.0166 17.9 28.2646 18.08 28.5446 18.208C28.8246 18.336 29.1286 18.4 29.4566 18.4C29.6646 18.4 29.8806 18.36 30.1046 18.28C30.3286 18.2 30.5406 18.092 30.7406 17.956C30.9486 17.812 31.1206 17.644 31.2566 17.452C31.3926 17.26 31.4766 17.06 31.5086 16.852ZM36.6814 19.084C36.2574 19.084 35.8654 18.996 35.5054 18.82C35.1454 18.644 34.8334 18.408 34.5694 18.112C34.3134 17.808 34.1134 17.464 33.9694 17.08C33.8254 16.696 33.7534 16.3 33.7534 15.892C33.7534 15.452 33.8214 15.04 33.9574 14.656C34.1014 14.264 34.3014 13.916 34.5574 13.612C34.8214 13.308 35.1294 13.072 35.4814 12.904C35.8334 12.728 36.2254 12.64 36.6574 12.64C37.1934 12.64 37.6574 12.776 38.0494 13.048C38.4494 13.32 38.7854 13.656 39.0574 14.056V12.748H39.7894V19.024C39.7894 19.6 39.6494 20.084 39.3694 20.476C39.0974 20.876 38.7254 21.176 38.2534 21.376C37.7894 21.576 37.2814 21.676 36.7294 21.676C36.0174 21.676 35.4414 21.548 35.0014 21.292C34.5614 21.036 34.2014 20.692 33.9214 20.26L34.4254 19.864C34.6734 20.256 35.0014 20.548 35.4094 20.74C35.8254 20.932 36.2654 21.028 36.7294 21.028C37.1374 21.028 37.5094 20.952 37.8454 20.8C38.1894 20.656 38.4614 20.436 38.6614 20.14C38.8694 19.844 38.9734 19.472 38.9734 19.024V17.788C38.7334 18.18 38.4054 18.496 37.9894 18.736C37.5734 18.968 37.1374 19.084 36.6814 19.084ZM36.9094 18.4C37.1574 18.4 37.3934 18.356 37.6174 18.268C37.8494 18.18 38.0614 18.064 38.2534 17.92C38.4454 17.768 38.6054 17.6 38.7334 17.416C38.8614 17.232 38.9414 17.044 38.9734 16.852V14.92C38.8534 14.616 38.6814 14.348 38.4574 14.116C38.2334 13.876 37.9774 13.692 37.6894 13.564C37.4094 13.428 37.1174 13.36 36.8134 13.36C36.4614 13.36 36.1454 13.436 35.8654 13.588C35.5934 13.732 35.3614 13.928 35.1694 14.176C34.9854 14.416 34.8414 14.688 34.7374 14.992C34.6334 15.296 34.5814 15.6 34.5814 15.904C34.5814 16.24 34.6414 16.56 34.7614 16.864C34.8814 17.16 35.0454 17.428 35.2534 17.668C35.4694 17.9 35.7174 18.08 35.9974 18.208C36.2854 18.336 36.5894 18.4 36.9094 18.4ZM44.2914 19.12C43.8434 19.12 43.4274 19.036 43.0434 18.868C42.6594 18.692 42.3274 18.456 42.0474 18.16C41.7674 17.856 41.5474 17.508 41.3874 17.116C41.2354 16.724 41.1594 16.304 41.1594 15.856C41.1594 15.272 41.2914 14.736 41.5554 14.248C41.8274 13.76 42.1994 13.372 42.6714 13.084C43.1434 12.788 43.6794 12.64 44.2794 12.64C44.8954 12.64 45.4314 12.788 45.8874 13.084C46.3514 13.38 46.7154 13.772 46.9794 14.26C47.2434 14.74 47.3754 15.268 47.3754 15.844C47.3754 15.908 47.3754 15.972 47.3754 16.036C47.3754 16.092 47.3714 16.136 47.3634 16.168H42.0114C42.0514 16.616 42.1754 17.016 42.3834 17.368C42.5994 17.712 42.8754 17.988 43.2114 18.196C43.5554 18.396 43.9274 18.496 44.3274 18.496C44.7354 18.496 45.1194 18.392 45.4794 18.184C45.8474 17.976 46.1034 17.704 46.2474 17.368L46.9554 17.56C46.8274 17.856 46.6314 18.124 46.3674 18.364C46.1034 18.604 45.7914 18.792 45.4314 18.928C45.0794 19.056 44.6994 19.12 44.2914 19.12ZM41.9874 15.58H46.6074C46.5754 15.124 46.4514 14.724 46.2354 14.38C46.0274 14.036 45.7514 13.768 45.4074 13.576C45.0714 13.376 44.6994 13.276 44.2914 13.276C43.8834 13.276 43.5114 13.376 43.1754 13.576C42.8394 13.768 42.5634 14.04 42.3474 14.392C42.1394 14.736 42.0194 15.132 41.9874 15.58ZM50.6864 19.12C50.1744 19.12 49.6984 19.036 49.2584 18.868C48.8184 18.7 48.4384 18.444 48.1184 18.1L48.4544 17.524C48.8064 17.852 49.1584 18.092 49.5104 18.244C49.8704 18.388 50.2504 18.46 50.6504 18.46C51.1384 18.46 51.5344 18.364 51.8384 18.172C52.1424 17.972 52.2944 17.688 52.2944 17.32C52.2944 17.072 52.2184 16.884 52.0664 16.756C51.9224 16.62 51.7104 16.512 51.4304 16.432C51.1584 16.344 50.8304 16.252 50.4464 16.156C50.0144 16.036 49.6504 15.912 49.3544 15.784C49.0664 15.648 48.8464 15.48 48.6944 15.28C48.5504 15.072 48.4784 14.804 48.4784 14.476C48.4784 14.068 48.5784 13.732 48.7784 13.468C48.9864 13.196 49.2664 12.992 49.6184 12.856C49.9784 12.712 50.3784 12.64 50.8184 12.64C51.2984 12.64 51.7224 12.716 52.0904 12.868C52.4584 13.02 52.7584 13.232 52.9904 13.504L52.5944 14.056C52.3704 13.8 52.1024 13.612 51.7904 13.492C51.4864 13.364 51.1464 13.3 50.7704 13.3C50.5144 13.3 50.2704 13.336 50.0384 13.408C49.8064 13.472 49.6144 13.584 49.4624 13.744C49.3184 13.896 49.2464 14.108 49.2464 14.38C49.2464 14.604 49.3024 14.78 49.4144 14.908C49.5264 15.028 49.6944 15.132 49.9184 15.22C50.1424 15.3 50.4184 15.388 50.7464 15.484C51.2184 15.612 51.6304 15.744 51.9824 15.88C52.3344 16.008 52.6064 16.176 52.7984 16.384C52.9904 16.592 53.0864 16.884 53.0864 17.26C53.0864 17.844 52.8664 18.3 52.4264 18.628C51.9864 18.956 51.4064 19.12 50.6864 19.12Z" fill="white"/>
</svg>
