<svg width="57" height="30" viewBox="0 0 57 30" fill="none" xmlns="http://www.w3.org/2000/svg">
<path d="M0 3C0 1.34315 1.34315 0 3 0H54C55.6569 0 57 1.34315 57 3V27C57 28.6569 55.6569 30 54 30H3C1.34314 30 0 28.6569 0 27V3Z" fill="#1D2F38" fill-opacity="0.8"/>
<path d="M11.068 19V10.48H11.908V18.256H16.828V19H11.068ZM17.3921 17.2C17.3921 16.808 17.5041 16.472 17.7281 16.192C17.9521 15.904 18.2601 15.684 18.6521 15.532C19.0521 15.372 19.5121 15.292 20.0321 15.292C20.3361 15.292 20.6521 15.316 20.9801 15.364C21.3081 15.412 21.6001 15.484 21.8561 15.58V15.052C21.8561 14.524 21.7001 14.104 21.3881 13.792C21.0761 13.48 20.6441 13.324 20.0921 13.324C19.7561 13.324 19.4241 13.388 19.0961 13.516C18.7761 13.636 18.4401 13.816 18.0881 14.056L17.7761 13.48C18.1841 13.2 18.5841 12.992 18.9761 12.856C19.3681 12.712 19.7681 12.64 20.1761 12.64C20.9441 12.64 21.5521 12.86 22.0001 13.3C22.4481 13.74 22.6721 14.348 22.6721 15.124V18.016C22.6721 18.128 22.6961 18.212 22.7441 18.268C22.7921 18.316 22.8681 18.344 22.9721 18.352V19C22.8841 19.008 22.8081 19.016 22.7441 19.024C22.6801 19.032 22.6321 19.032 22.6001 19.024C22.4001 19.016 22.2481 18.952 22.1441 18.832C22.0401 18.712 21.9841 18.584 21.9761 18.448L21.9641 17.992C21.6841 18.352 21.3201 18.632 20.8721 18.832C20.4241 19.024 19.9681 19.12 19.5041 19.12C19.1041 19.12 18.7401 19.036 18.4121 18.868C18.0921 18.692 17.8401 18.46 17.6561 18.172C17.4801 17.876 17.3921 17.552 17.3921 17.2ZM21.5801 17.68C21.6681 17.568 21.7361 17.46 21.7841 17.356C21.8321 17.252 21.8561 17.16 21.8561 17.08V16.168C21.5841 16.064 21.3001 15.984 21.0041 15.928C20.7161 15.872 20.4241 15.844 20.1281 15.844C19.5441 15.844 19.0721 15.96 18.7121 16.192C18.3521 16.424 18.1721 16.74 18.1721 17.14C18.1721 17.372 18.2321 17.592 18.3521 17.8C18.4721 18 18.6481 18.168 18.8801 18.304C19.1121 18.432 19.3841 18.496 19.6961 18.496C20.0881 18.496 20.4521 18.42 20.7881 18.268C21.1321 18.116 21.3961 17.92 21.5801 17.68ZM32.1197 12.748H32.9237L30.2357 19H29.5277L28.2197 15.892L26.9237 19H26.2157L23.5277 12.748H24.3197L26.5997 18.16L27.7517 15.34L26.6957 12.76H27.4277L28.2197 14.788L29.0237 12.76H29.7437L28.6997 15.34L29.8517 18.16L32.1197 12.748ZM39.2654 19H38.4494V15.508C38.4494 14.772 38.3414 14.236 38.1254 13.9C37.9094 13.556 37.5694 13.384 37.1054 13.384C36.7854 13.384 36.4694 13.464 36.1574 13.624C35.8454 13.776 35.5694 13.988 35.3294 14.26C35.0974 14.524 34.9294 14.828 34.8254 15.172V19H34.0094V12.748H34.7534V14.164C34.9214 13.86 35.1414 13.596 35.4134 13.372C35.6854 13.14 35.9934 12.96 36.3374 12.832C36.6814 12.704 37.0374 12.64 37.4054 12.64C37.7494 12.64 38.0414 12.704 38.2814 12.832C38.5214 12.96 38.7134 13.144 38.8574 13.384C39.0014 13.616 39.1054 13.9 39.1694 14.236C39.2334 14.564 39.2654 14.932 39.2654 15.34V19ZM43.0575 19.12C42.5455 19.12 42.0695 19.036 41.6295 18.868C41.1895 18.7 40.8095 18.444 40.4895 18.1L40.8255 17.524C41.1775 17.852 41.5295 18.092 41.8815 18.244C42.2415 18.388 42.6215 18.46 43.0215 18.46C43.5095 18.46 43.9055 18.364 44.2095 18.172C44.5135 17.972 44.6655 17.688 44.6655 17.32C44.6655 17.072 44.5895 16.884 44.4375 16.756C44.2935 16.62 44.0815 16.512 43.8015 16.432C43.5295 16.344 43.2015 16.252 42.8175 16.156C42.3855 16.036 42.0215 15.912 41.7255 15.784C41.4375 15.648 41.2175 15.48 41.0655 15.28C40.9215 15.072 40.8495 14.804 40.8495 14.476C40.8495 14.068 40.9495 13.732 41.1495 13.468C41.3575 13.196 41.6375 12.992 41.9895 12.856C42.3495 12.712 42.7495 12.64 43.1895 12.64C43.6695 12.64 44.0935 12.716 44.4615 12.868C44.8295 13.02 45.1295 13.232 45.3615 13.504L44.9655 14.056C44.7415 13.8 44.4735 13.612 44.1615 13.492C43.8575 13.364 43.5175 13.3 43.1415 13.3C42.8855 13.3 42.6415 13.336 42.4095 13.408C42.1775 13.472 41.9855 13.584 41.8335 13.744C41.6895 13.896 41.6175 14.108 41.6175 14.38C41.6175 14.604 41.6735 14.78 41.7855 14.908C41.8975 15.028 42.0655 15.132 42.2895 15.22C42.5135 15.3 42.7895 15.388 43.1175 15.484C43.5895 15.612 44.0015 15.744 44.3535 15.88C44.7055 16.008 44.9775 16.176 45.1695 16.384C45.3615 16.592 45.4575 16.884 45.4575 17.26C45.4575 17.844 45.2375 18.3 44.7975 18.628C44.3575 18.956 43.7775 19.12 43.0575 19.12Z" fill="white"/>
</svg>
